<svg width="12" height="14" viewBox="0 0 12 14" fill="none" xmlns="http://www.w3.org/2000/svg">
<path fill-rule="evenodd" clip-rule="evenodd" d="M11.4905 2.74327C11.7356 2.74327 11.9396 2.94675 11.9396 3.20568V3.44508C11.9396 3.69771 11.7356 3.90749 11.4905 3.90749H1.04934C0.803641 3.90749 0.599609 3.69771 0.599609 3.44508V3.20568C0.599609 2.94675 0.803641 2.74327 1.04934 2.74327H2.88624C3.25937 2.74327 3.58411 2.47804 3.66805 2.10382L3.76425 1.67417C3.91375 1.0889 4.40575 0.700195 4.96883 0.700195H7.57039C8.12734 0.700195 8.62486 1.0889 8.76885 1.6433L8.87178 2.10319C8.95511 2.47804 9.27984 2.74327 9.65359 2.74327H11.4905ZM10.5573 11.4946C10.7491 9.70727 11.0849 5.46111 11.0849 5.41827C11.0971 5.2885 11.0548 5.16565 10.9709 5.06674C10.8808 4.97413 10.7669 4.91932 10.6412 4.91932H1.90281C1.77659 4.91932 1.6565 4.97413 1.57317 5.06674C1.48862 5.16565 1.44695 5.2885 1.45308 5.41827C1.45421 5.42615 1.46625 5.57571 1.4864 5.82576C1.57588 6.9366 1.8251 10.0305 1.98614 11.4946C2.1001 12.5731 2.80778 13.251 3.83284 13.2756C4.62384 13.2938 5.43875 13.3001 6.27203 13.3001C7.05691 13.3001 7.85404 13.2938 8.66956 13.2756C9.73015 13.2573 10.4372 12.5914 10.5573 11.4946Z" fill="#D11A2A"/>
</svg>
